<?xml version="1.0" encoding="utf-8" standalone="no"?>
<!DOCTYPE svg PUBLIC "-//W3C//DTD SVG 1.1//EN"
  "http://www.w3.org/Graphics/SVG/1.1/DTD/svg11.dtd">
<!-- Created with matplotlib (http://matplotlib.org/) -->
<svg height="666pt" version="1.1" viewBox="0 0 1286 666" width="1286pt" xmlns="http://www.w3.org/2000/svg" xmlns:xlink="http://www.w3.org/1999/xlink">
 <defs>
  <style type="text/css">
*{stroke-linecap:butt;stroke-linejoin:round;}
  </style>
 </defs>
 <g id="figure_1">
  <g id="patch_1">
   <path d="M 0 666.72 
L 1286.64 666.72 
L 1286.64 0 
L 0 0 
z
" style="fill:#ffffff;"/>
  </g>
  <g id="axes_1">
   <g id="patch_2">
    <path d="M 160.83 593.3808 
L 1157.976 593.3808 
L 1157.976 80.0064 
L 160.83 80.0064 
z
" style="fill:#ffffff;"/>
   </g>
   <g id="patch_3">
    <path clip-path="url(#p3031561f1f)" d="M 166.56359 593.3808 
L 175.90615 593.3808 
L 175.90615 592.918763 
L 166.56359 592.918763 
z
" style="fill:#3f5d7d;"/>
   </g>
   <g id="patch_4">
    <path clip-path="url(#p3031561f1f)" d="M 175.90615 593.3808 
L 185.24871 593.3808 
L 185.24871 545.517193 
L 175.90615 545.517193 
z
" style="fill:#3f5d7d;"/>
   </g>
   <g id="patch_5">
    <path clip-path="url(#p3031561f1f)" d="M 185.24871 593.3808 
L 194.59127 593.3808 
L 194.59127 573.478986 
L 185.24871 573.478986 
z
" style="fill:#3f5d7d;"/>
   </g>
   <g id="patch_6">
    <path clip-path="url(#p3031561f1f)" d="M 194.59127 593.3808 
L 203.93383 593.3808 
L 203.93383 587.442769 
L 194.59127 587.442769 
z
" style="fill:#3f5d7d;"/>
   </g>
   <g id="patch_7">
    <path clip-path="url(#p3031561f1f)" d="M 203.93383 593.3808 
L 213.27639 593.3808 
L 213.27639 453.452051 
L 203.93383 453.452051 
z
" style="fill:#3f5d7d;"/>
   </g>
   <g id="patch_8">
    <path clip-path="url(#p3031561f1f)" d="M 213.27639 593.3808 
L 222.61895 593.3808 
L 222.61895 366.486428 
L 213.27639 366.486428 
z
" style="fill:#3f5d7d;"/>
   </g>
   <g id="patch_9">
    <path clip-path="url(#p3031561f1f)" d="M 222.61895 593.3808 
L 231.96151 593.3808 
L 231.96151 476.177424 
L 222.61895 476.177424 
z
" style="fill:#3f5d7d;"/>
   </g>
   <g id="patch_10">
    <path clip-path="url(#p3031561f1f)" d="M 231.96151 593.3808 
L 241.30407 593.3808 
L 241.30407 42.735419 
L 231.96151 42.735419 
z
" style="fill:#3f5d7d;"/>
   </g>
   <g id="patch_11">
    <path clip-path="url(#p3031561f1f)" d="M 241.30407 593.3808 
L 250.64663 593.3808 
L 250.64663 350.537596 
L 241.30407 350.537596 
z
" style="fill:#3f5d7d;"/>
   </g>
   <g id="patch_12">
    <path clip-path="url(#p3031561f1f)" d="M 250.64663 593.3808 
L 259.98919 593.3808 
L 259.98919 465.430787 
L 250.64663 465.430787 
z
" style="fill:#3f5d7d;"/>
   </g>
   <g id="patch_13">
    <path clip-path="url(#p3031561f1f)" d="M 259.98919 593.3808 
L 269.33175 593.3808 
L 269.33175 535.609068 
L 259.98919 535.609068 
z
" style="fill:#3f5d7d;"/>
   </g>
   <g id="patch_14">
    <path clip-path="url(#p3031561f1f)" d="M 269.33175 593.3808 
L 278.67431 593.3808 
L 278.67431 568.465029 
L 269.33175 568.465029 
z
" style="fill:#3f5d7d;"/>
   </g>
   <g id="patch_15">
    <path clip-path="url(#p3031561f1f)" d="M 278.67431 593.3808 
L 288.01687 593.3808 
L 288.01687 574.26616 
L 278.67431 574.26616 
z
" style="fill:#3f5d7d;"/>
   </g>
   <g id="patch_16">
    <path clip-path="url(#p3031561f1f)" d="M 288.01687 593.3808 
L 297.35943 593.3808 
L 297.35943 579.656591 
L 288.01687 579.656591 
z
" style="fill:#3f5d7d;"/>
   </g>
   <g id="patch_17">
    <path clip-path="url(#p3031561f1f)" d="M 297.35943 593.3808 
L 306.70199 593.3808 
L 306.70199 578.424492 
L 297.35943 578.424492 
z
" style="fill:#3f5d7d;"/>
   </g>
   <g id="patch_18">
    <path clip-path="url(#p3031561f1f)" d="M 306.70199 593.3808 
L 316.04455 593.3808 
L 316.04455 577.466194 
L 306.70199 577.466194 
z
" style="fill:#3f5d7d;"/>
   </g>
   <g id="patch_19">
    <path clip-path="url(#p3031561f1f)" d="M 316.04455 593.3808 
L 325.38711 593.3808 
L 325.38711 576.26832 
L 316.04455 576.26832 
z
" style="fill:#3f5d7d;"/>
   </g>
   <g id="patch_20">
    <path clip-path="url(#p3031561f1f)" d="M 325.38711 593.3808 
L 334.72967 593.3808 
L 334.72967 571.92175 
L 325.38711 571.92175 
z
" style="fill:#3f5d7d;"/>
   </g>
   <g id="patch_21">
    <path clip-path="url(#p3031561f1f)" d="M 334.72967 593.3808 
L 344.07223 593.3808 
L 344.07223 570.518527 
L 334.72967 570.518527 
z
" style="fill:#3f5d7d;"/>
   </g>
   <g id="patch_22">
    <path clip-path="url(#p3031561f1f)" d="M 344.07223 593.3808 
L 353.41479 593.3808 
L 353.41479 567.010468 
L 344.07223 567.010468 
z
" style="fill:#3f5d7d;"/>
   </g>
   <g id="patch_23">
    <path clip-path="url(#p3031561f1f)" d="M 353.41479 593.3808 
L 362.75735 593.3808 
L 362.75735 565.812595 
L 353.41479 565.812595 
z
" style="fill:#3f5d7d;"/>
   </g>
   <g id="patch_24">
    <path clip-path="url(#p3031561f1f)" d="M 362.75735 593.3808 
L 372.09991 593.3808 
L 372.09991 562.475661 
L 362.75735 562.475661 
z
" style="fill:#3f5d7d;"/>
   </g>
   <g id="patch_25">
    <path clip-path="url(#p3031561f1f)" d="M 372.09991 593.3808 
L 381.44247 593.3808 
L 381.44247 557.718392 
L 372.09991 557.718392 
z
" style="fill:#3f5d7d;"/>
   </g>
   <g id="patch_26">
    <path clip-path="url(#p3031561f1f)" d="M 381.44247 593.3808 
L 390.78503 593.3808 
L 390.78503 555.373982 
L 381.44247 555.373982 
z
" style="fill:#3f5d7d;"/>
   </g>
   <g id="patch_27">
    <path clip-path="url(#p3031561f1f)" d="M 390.78503 593.3808 
L 400.12759 593.3808 
L 400.12759 551.763249 
L 390.78503 551.763249 
z
" style="fill:#3f5d7d;"/>
   </g>
   <g id="patch_28">
    <path clip-path="url(#p3031561f1f)" d="M 400.12759 593.3808 
L 409.47015 593.3808 
L 409.47015 548.426315 
L 400.12759 548.426315 
z
" style="fill:#3f5d7d;"/>
   </g>
   <g id="patch_29">
    <path clip-path="url(#p3031561f1f)" d="M 409.47015 593.3808 
L 418.81271 593.3808 
L 418.81271 543.583483 
L 409.47015 543.583483 
z
" style="fill:#3f5d7d;"/>
   </g>
   <g id="patch_30">
    <path clip-path="url(#p3031561f1f)" d="M 418.81271 593.3808 
L 428.15527 593.3808 
L 428.15527 538.381289 
L 418.81271 538.381289 
z
" style="fill:#3f5d7d;"/>
   </g>
   <g id="patch_31">
    <path clip-path="url(#p3031561f1f)" d="M 428.15527 593.3808 
L 437.49783 593.3808 
L 437.49783 535.865755 
L 428.15527 535.865755 
z
" style="fill:#3f5d7d;"/>
   </g>
   <g id="patch_32">
    <path clip-path="url(#p3031561f1f)" d="M 437.49783 593.3808 
L 446.84039 593.3808 
L 446.84039 531.998334 
L 437.49783 531.998334 
z
" style="fill:#3f5d7d;"/>
   </g>
   <g id="patch_33">
    <path clip-path="url(#p3031561f1f)" d="M 446.84039 593.3808 
L 456.18295 593.3808 
L 456.18295 529.602587 
L 446.84039 529.602587 
z
" style="fill:#3f5d7d;"/>
   </g>
   <g id="patch_34">
    <path clip-path="url(#p3031561f1f)" d="M 456.18295 593.3808 
L 465.52551 593.3808 
L 465.52551 523.236744 
L 456.18295 523.236744 
z
" style="fill:#3f5d7d;"/>
   </g>
   <g id="patch_35">
    <path clip-path="url(#p3031561f1f)" d="M 465.52551 593.3808 
L 474.86807 593.3808 
L 474.86807 522.346896 
L 465.52551 522.346896 
z
" style="fill:#3f5d7d;"/>
   </g>
   <g id="patch_36">
    <path clip-path="url(#p3031561f1f)" d="M 474.86807 593.3808 
L 484.21063 593.3808 
L 484.21063 518.479475 
L 474.86807 518.479475 
z
" style="fill:#3f5d7d;"/>
   </g>
   <g id="patch_37">
    <path clip-path="url(#p3031561f1f)" d="M 484.21063 593.3808 
L 493.55319 593.3808 
L 493.55319 510.813084 
L 484.21063 510.813084 
z
" style="fill:#3f5d7d;"/>
   </g>
   <g id="patch_38">
    <path clip-path="url(#p3031561f1f)" d="M 493.55319 593.3808 
L 502.89575 593.3808 
L 502.89575 518.890175 
L 493.55319 518.890175 
z
" style="fill:#3f5d7d;"/>
   </g>
   <g id="patch_39">
    <path clip-path="url(#p3031561f1f)" d="M 502.89575 593.3808 
L 512.23831 593.3808 
L 512.23831 512.010958 
L 502.89575 512.010958 
z
" style="fill:#3f5d7d;"/>
   </g>
   <g id="patch_40">
    <path clip-path="url(#p3031561f1f)" d="M 512.23831 593.3808 
L 521.58087 593.3808 
L 521.58087 507.715725 
L 512.23831 507.715725 
z
" style="fill:#3f5d7d;"/>
   </g>
   <g id="patch_41">
    <path clip-path="url(#p3031561f1f)" d="M 521.58087 593.3808 
L 530.92343 593.3808 
L 530.92343 502.958456 
L 521.58087 502.958456 
z
" style="fill:#3f5d7d;"/>
   </g>
   <g id="patch_42">
    <path clip-path="url(#p3031561f1f)" d="M 530.92343 593.3808 
L 540.26599 593.3808 
L 540.26599 501.281433 
L 530.92343 501.281433 
z
" style="fill:#3f5d7d;"/>
   </g>
   <g id="patch_43">
    <path clip-path="url(#p3031561f1f)" d="M 540.26599 593.3808 
L 549.60855 593.3808 
L 549.60855 498.91991 
L 540.26599 498.91991 
z
" style="fill:#3f5d7d;"/>
   </g>
   <g id="patch_44">
    <path clip-path="url(#p3031561f1f)" d="M 549.60855 593.3808 
L 558.95111 593.3808 
L 558.95111 496.541276 
L 549.60855 496.541276 
z
" style="fill:#3f5d7d;"/>
   </g>
   <g id="patch_45">
    <path clip-path="url(#p3031561f1f)" d="M 558.95111 593.3808 
L 568.29367 593.3808 
L 568.29367 496.678176 
L 558.95111 496.678176 
z
" style="fill:#3f5d7d;"/>
   </g>
   <g id="patch_46">
    <path clip-path="url(#p3031561f1f)" d="M 568.29367 593.3808 
L 577.63623 593.3808 
L 577.63623 492.605405 
L 568.29367 492.605405 
z
" style="fill:#3f5d7d;"/>
   </g>
   <g id="patch_47">
    <path clip-path="url(#p3031561f1f)" d="M 577.63623 593.3808 
L 586.97879 593.3808 
L 586.97879 492.43428 
L 577.63623 492.43428 
z
" style="fill:#3f5d7d;"/>
   </g>
   <g id="patch_48">
    <path clip-path="url(#p3031561f1f)" d="M 586.97879 593.3808 
L 596.32135 593.3808 
L 596.32135 489.336922 
L 586.97879 489.336922 
z
" style="fill:#3f5d7d;"/>
   </g>
   <g id="patch_49">
    <path clip-path="url(#p3031561f1f)" d="M 596.32135 593.3808 
L 605.66391 593.3808 
L 605.66391 488.84066 
L 596.32135 488.84066 
z
" style="fill:#3f5d7d;"/>
   </g>
   <g id="patch_50">
    <path clip-path="url(#p3031561f1f)" d="M 605.66391 593.3808 
L 615.00647 593.3808 
L 615.00647 490.021421 
L 605.66391 490.021421 
z
" style="fill:#3f5d7d;"/>
   </g>
   <g id="patch_51">
    <path clip-path="url(#p3031561f1f)" d="M 615.00647 593.3808 
L 624.34903 593.3808 
L 624.34903 487.796798 
L 615.00647 487.796798 
z
" style="fill:#3f5d7d;"/>
   </g>
   <g id="patch_52">
    <path clip-path="url(#p3031561f1f)" d="M 624.34903 593.3808 
L 633.69159 593.3808 
L 633.69159 490.962607 
L 624.34903 490.962607 
z
" style="fill:#3f5d7d;"/>
   </g>
   <g id="patch_53">
    <path clip-path="url(#p3031561f1f)" d="M 633.69159 593.3808 
L 643.03415 593.3808 
L 643.03415 490.97972 
L 633.69159 490.97972 
z
" style="fill:#3f5d7d;"/>
   </g>
   <g id="patch_54">
    <path clip-path="url(#p3031561f1f)" d="M 643.03415 593.3808 
L 652.37671 593.3808 
L 652.37671 490.004308 
L 643.03415 490.004308 
z
" style="fill:#3f5d7d;"/>
   </g>
   <g id="patch_55">
    <path clip-path="url(#p3031561f1f)" d="M 652.37671 593.3808 
L 661.71927 593.3808 
L 661.71927 488.926222 
L 652.37671 488.926222 
z
" style="fill:#3f5d7d;"/>
   </g>
   <g id="patch_56">
    <path clip-path="url(#p3031561f1f)" d="M 661.71927 593.3808 
L 671.06183 593.3808 
L 671.06183 494.316653 
L 661.71927 494.316653 
z
" style="fill:#3f5d7d;"/>
   </g>
   <g id="patch_57">
    <path clip-path="url(#p3031561f1f)" d="M 671.06183 593.3808 
L 680.40439 593.3808 
L 680.40439 497.311337 
L 671.06183 497.311337 
z
" style="fill:#3f5d7d;"/>
   </g>
   <g id="patch_58">
    <path clip-path="url(#p3031561f1f)" d="M 680.40439 593.3808 
L 689.74695 593.3808 
L 689.74695 502.068607 
L 680.40439 502.068607 
z
" style="fill:#3f5d7d;"/>
   </g>
   <g id="patch_59">
    <path clip-path="url(#p3031561f1f)" d="M 689.74695 593.3808 
L 699.089511 593.3808 
L 699.089511 504.823716 
L 689.74695 504.823716 
z
" style="fill:#3f5d7d;"/>
   </g>
   <g id="patch_60">
    <path clip-path="url(#p3031561f1f)" d="M 699.089511 593.3808 
L 708.432071 593.3808 
L 708.432071 507.082563 
L 699.089511 507.082563 
z
" style="fill:#3f5d7d;"/>
   </g>
   <g id="patch_61">
    <path clip-path="url(#p3031561f1f)" d="M 708.432071 593.3808 
L 717.774631 593.3808 
L 717.774631 511.069771 
L 708.432071 511.069771 
z
" style="fill:#3f5d7d;"/>
   </g>
   <g id="patch_62">
    <path clip-path="url(#p3031561f1f)" d="M 717.774631 593.3808 
L 727.117191 593.3808 
L 727.117191 516.16929 
L 717.774631 516.16929 
z
" style="fill:#3f5d7d;"/>
   </g>
   <g id="patch_63">
    <path clip-path="url(#p3031561f1f)" d="M 727.117191 593.3808 
L 736.459751 593.3808 
L 736.459751 523.236744 
L 727.117191 523.236744 
z
" style="fill:#3f5d7d;"/>
   </g>
   <g id="patch_64">
    <path clip-path="url(#p3031561f1f)" d="M 736.459751 593.3808 
L 745.802311 593.3808 
L 745.802311 525.752279 
L 736.459751 525.752279 
z
" style="fill:#3f5d7d;"/>
   </g>
   <g id="patch_65">
    <path clip-path="url(#p3031561f1f)" d="M 745.802311 593.3808 
L 755.144871 593.3808 
L 755.144871 531.861434 
L 745.802311 531.861434 
z
" style="fill:#3f5d7d;"/>
   </g>
   <g id="patch_66">
    <path clip-path="url(#p3031561f1f)" d="M 755.144871 593.3808 
L 764.487431 593.3808 
L 764.487431 534.787668 
L 755.144871 534.787668 
z
" style="fill:#3f5d7d;"/>
   </g>
   <g id="patch_67">
    <path clip-path="url(#p3031561f1f)" d="M 764.487431 593.3808 
L 773.829991 593.3808 
L 773.829991 540.965274 
L 764.487431 540.965274 
z
" style="fill:#3f5d7d;"/>
   </g>
   <g id="patch_68">
    <path clip-path="url(#p3031561f1f)" d="M 773.829991 593.3808 
L 783.172551 593.3808 
L 783.172551 546.081905 
L 773.829991 546.081905 
z
" style="fill:#3f5d7d;"/>
   </g>
   <g id="patch_69">
    <path clip-path="url(#p3031561f1f)" d="M 783.172551 593.3808 
L 792.515111 593.3808 
L 792.515111 551.865924 
L 783.172551 551.865924 
z
" style="fill:#3f5d7d;"/>
   </g>
   <g id="patch_70">
    <path clip-path="url(#p3031561f1f)" d="M 792.515111 593.3808 
L 801.857671 593.3808 
L 801.857671 556.486293 
L 792.515111 556.486293 
z
" style="fill:#3f5d7d;"/>
   </g>
   <g id="patch_71">
    <path clip-path="url(#p3031561f1f)" d="M 801.857671 593.3808 
L 811.200231 593.3808 
L 811.200231 561.397575 
L 801.857671 561.397575 
z
" style="fill:#3f5d7d;"/>
   </g>
   <g id="patch_72">
    <path clip-path="url(#p3031561f1f)" d="M 811.200231 593.3808 
L 820.542791 593.3808 
L 820.542791 566.120619 
L 811.200231 566.120619 
z
" style="fill:#3f5d7d;"/>
   </g>
   <g id="patch_73">
    <path clip-path="url(#p3031561f1f)" d="M 820.542791 593.3808 
L 829.885351 593.3808 
L 829.885351 569.183753 
L 820.542791 569.183753 
z
" style="fill:#3f5d7d;"/>
   </g>
   <g id="patch_74">
    <path clip-path="url(#p3031561f1f)" d="M 829.885351 593.3808 
L 839.227911 593.3808 
L 839.227911 572.520687 
L 829.885351 572.520687 
z
" style="fill:#3f5d7d;"/>
   </g>
   <g id="patch_75">
    <path clip-path="url(#p3031561f1f)" d="M 839.227911 593.3808 
L 848.570471 593.3808 
L 848.570471 576.302545 
L 839.227911 576.302545 
z
" style="fill:#3f5d7d;"/>
   </g>
   <g id="patch_76">
    <path clip-path="url(#p3031561f1f)" d="M 848.570471 593.3808 
L 857.913031 593.3808 
L 857.913031 579.742153 
L 848.570471 579.742153 
z
" style="fill:#3f5d7d;"/>
   </g>
   <g id="patch_77">
    <path clip-path="url(#p3031561f1f)" d="M 857.913031 593.3808 
L 867.255591 593.3808 
L 867.255591 581.162489 
L 857.913031 581.162489 
z
" style="fill:#3f5d7d;"/>
   </g>
   <g id="patch_78">
    <path clip-path="url(#p3031561f1f)" d="M 867.255591 593.3808 
L 876.598151 593.3808 
L 876.598151 584.208511 
L 867.255591 584.208511 
z
" style="fill:#3f5d7d;"/>
   </g>
   <g id="patch_79">
    <path clip-path="url(#p3031561f1f)" d="M 876.598151 593.3808 
L 885.940711 593.3808 
L 885.940711 584.910122 
L 876.598151 584.910122 
z
" style="fill:#3f5d7d;"/>
   </g>
   <g id="patch_80">
    <path clip-path="url(#p3031561f1f)" d="M 885.940711 593.3808 
L 895.283271 593.3808 
L 895.283271 587.785019 
L 885.940711 587.785019 
z
" style="fill:#3f5d7d;"/>
   </g>
   <g id="patch_81">
    <path clip-path="url(#p3031561f1f)" d="M 895.283271 593.3808 
L 904.625831 593.3808 
L 904.625831 588.315506 
L 895.283271 588.315506 
z
" style="fill:#3f5d7d;"/>
   </g>
   <g id="patch_82">
    <path clip-path="url(#p3031561f1f)" d="M 904.625831 593.3808 
L 913.968391 593.3808 
L 913.968391 589.10268 
L 904.625831 589.10268 
z
" style="fill:#3f5d7d;"/>
   </g>
   <g id="patch_83">
    <path clip-path="url(#p3031561f1f)" d="M 913.968391 593.3808 
L 923.310951 593.3808 
L 923.310951 590.009641 
L 913.968391 590.009641 
z
" style="fill:#3f5d7d;"/>
   </g>
   <g id="patch_84">
    <path clip-path="url(#p3031561f1f)" d="M 923.310951 593.3808 
L 932.653511 593.3808 
L 932.653511 590.882378 
L 923.310951 590.882378 
z
" style="fill:#3f5d7d;"/>
   </g>
   <g id="patch_85">
    <path clip-path="url(#p3031561f1f)" d="M 932.653511 593.3808 
L 941.996071 593.3808 
L 941.996071 591.618215 
L 932.653511 591.618215 
z
" style="fill:#3f5d7d;"/>
   </g>
   <g id="patch_86">
    <path clip-path="url(#p3031561f1f)" d="M 941.996071 593.3808 
L 951.338631 593.3808 
L 951.338631 591.823564 
L 941.996071 591.823564 
z
" style="fill:#3f5d7d;"/>
   </g>
   <g id="patch_87">
    <path clip-path="url(#p3031561f1f)" d="M 951.338631 593.3808 
L 960.681191 593.3808 
L 960.681191 592.200039 
L 951.338631 592.200039 
z
" style="fill:#3f5d7d;"/>
   </g>
   <g id="patch_88">
    <path clip-path="url(#p3031561f1f)" d="M 960.681191 593.3808 
L 970.023751 593.3808 
L 970.023751 592.610738 
L 960.681191 592.610738 
z
" style="fill:#3f5d7d;"/>
   </g>
   <g id="patch_89">
    <path clip-path="url(#p3031561f1f)" d="M 970.023751 593.3808 
L 979.366311 593.3808 
L 979.366311 592.833201 
L 970.023751 592.833201 
z
" style="fill:#3f5d7d;"/>
   </g>
   <g id="patch_90">
    <path clip-path="url(#p3031561f1f)" d="M 979.366311 593.3808 
L 988.708871 593.3808 
L 988.708871 593.021438 
L 979.366311 593.021438 
z
" style="fill:#3f5d7d;"/>
   </g>
   <g id="patch_91">
    <path clip-path="url(#p3031561f1f)" d="M 988.708871 593.3808 
L 998.051431 593.3808 
L 998.051431 592.952988 
L 988.708871 592.952988 
z
" style="fill:#3f5d7d;"/>
   </g>
   <g id="patch_92">
    <path clip-path="url(#p3031561f1f)" d="M 998.051431 593.3808 
L 1007.393991 593.3808 
L 1007.393991 593.107 
L 998.051431 593.107 
z
" style="fill:#3f5d7d;"/>
   </g>
   <g id="patch_93">
    <path clip-path="url(#p3031561f1f)" d="M 1007.393991 593.3808 
L 1016.736551 593.3808 
L 1016.736551 593.2439 
L 1007.393991 593.2439 
z
" style="fill:#3f5d7d;"/>
   </g>
   <g id="patch_94">
    <path clip-path="url(#p3031561f1f)" d="M 1016.736551 593.3808 
L 1026.079111 593.3808 
L 1026.079111 593.158338 
L 1016.736551 593.158338 
z
" style="fill:#3f5d7d;"/>
   </g>
   <g id="patch_95">
    <path clip-path="url(#p3031561f1f)" d="M 1026.079111 593.3808 
L 1035.421671 593.3808 
L 1035.421671 593.192563 
L 1026.079111 593.192563 
z
" style="fill:#3f5d7d;"/>
   </g>
   <g id="patch_96">
    <path clip-path="url(#p3031561f1f)" d="M 1035.421671 593.3808 
L 1044.764231 593.3808 
L 1044.764231 593.141225 
L 1035.421671 593.141225 
z
" style="fill:#3f5d7d;"/>
   </g>
   <g id="patch_97">
    <path clip-path="url(#p3031561f1f)" d="M 1044.764231 593.3808 
L 1054.106791 593.3808 
L 1054.106791 593.295238 
L 1044.764231 593.295238 
z
" style="fill:#3f5d7d;"/>
   </g>
   <g id="patch_98">
    <path clip-path="url(#p3031561f1f)" d="M 1054.106791 593.3808 
L 1063.449351 593.3808 
L 1063.449351 593.346575 
L 1054.106791 593.346575 
z
" style="fill:#3f5d7d;"/>
   </g>
   <g id="patch_99">
    <path clip-path="url(#p3031561f1f)" d="M 1063.449351 593.3808 
L 1072.791911 593.3808 
L 1072.791911 593.31235 
L 1063.449351 593.31235 
z
" style="fill:#3f5d7d;"/>
   </g>
   <g id="patch_100">
    <path clip-path="url(#p3031561f1f)" d="M 1072.791911 593.3808 
L 1082.134471 593.3808 
L 1082.134471 593.363688 
L 1072.791911 593.363688 
z
" style="fill:#3f5d7d;"/>
   </g>
   <g id="patch_101">
    <path clip-path="url(#p3031561f1f)" d="M 1082.134471 593.3808 
L 1091.477031 593.3808 
L 1091.477031 593.346575 
L 1082.134471 593.346575 
z
" style="fill:#3f5d7d;"/>
   </g>
   <g id="patch_102">
    <path clip-path="url(#p3031561f1f)" d="M 1091.477031 593.3808 
L 1100.819591 593.3808 
L 1100.819591 593.346575 
L 1091.477031 593.346575 
z
" style="fill:#3f5d7d;"/>
   </g>
   <g id="matplotlib.axis_1">
    <g id="xtick_1">
     <g id="text_1">
      <!-- 0% -->
      <defs>
       <path d="M 31.78125 66.40625 
Q 24.171875 66.40625 20.328125 58.90625 
Q 16.5 51.421875 16.5 36.375 
Q 16.5 21.390625 20.328125 13.890625 
Q 24.171875 6.390625 31.78125 6.390625 
Q 39.453125 6.390625 43.28125 13.890625 
Q 47.125 21.390625 47.125 36.375 
Q 47.125 51.421875 43.28125 58.90625 
Q 39.453125 66.40625 31.78125 66.40625 
z
M 31.78125 74.21875 
Q 44.046875 74.21875 50.515625 64.515625 
Q 56.984375 54.828125 56.984375 36.375 
Q 56.984375 17.96875 50.515625 8.265625 
Q 44.046875 -1.421875 31.78125 -1.421875 
Q 19.53125 -1.421875 13.0625 8.265625 
Q 6.59375 17.96875 6.59375 36.375 
Q 6.59375 54.828125 13.0625 64.515625 
Q 19.53125 74.21875 31.78125 74.21875 
z
" id="DejaVuSans-30"/>
       <path d="M 72.703125 32.078125 
Q 68.453125 32.078125 66.03125 28.46875 
Q 63.625 24.859375 63.625 18.40625 
Q 63.625 12.0625 66.03125 8.421875 
Q 68.453125 4.78125 72.703125 4.78125 
Q 76.859375 4.78125 79.265625 8.421875 
Q 81.6875 12.0625 81.6875 18.40625 
Q 81.6875 24.8125 79.265625 28.4375 
Q 76.859375 32.078125 72.703125 32.078125 
z
M 72.703125 38.28125 
Q 80.421875 38.28125 84.953125 32.90625 
Q 89.5 27.546875 89.5 18.40625 
Q 89.5 9.28125 84.9375 3.921875 
Q 80.375 -1.421875 72.703125 -1.421875 
Q 64.890625 -1.421875 60.34375 3.921875 
Q 55.8125 9.28125 55.8125 18.40625 
Q 55.8125 27.59375 60.375 32.9375 
Q 64.9375 38.28125 72.703125 38.28125 
z
M 22.3125 68.015625 
Q 18.109375 68.015625 15.6875 64.375 
Q 13.28125 60.75 13.28125 54.390625 
Q 13.28125 47.953125 15.671875 44.328125 
Q 18.0625 40.71875 22.3125 40.71875 
Q 26.5625 40.71875 28.96875 44.328125 
Q 31.390625 47.953125 31.390625 54.390625 
Q 31.390625 60.6875 28.953125 64.34375 
Q 26.515625 68.015625 22.3125 68.015625 
z
M 66.40625 74.21875 
L 74.21875 74.21875 
L 28.609375 -1.421875 
L 20.796875 -1.421875 
z
M 22.3125 74.21875 
Q 30.03125 74.21875 34.609375 68.875 
Q 39.203125 63.53125 39.203125 54.390625 
Q 39.203125 45.171875 34.640625 39.84375 
Q 30.078125 34.515625 22.3125 34.515625 
Q 14.546875 34.515625 10.03125 39.859375 
Q 5.515625 45.21875 5.515625 54.390625 
Q 5.515625 63.484375 10.046875 68.84375 
Q 14.59375 74.21875 22.3125 74.21875 
z
" id="DejaVuSans-25"/>
      </defs>
      <g transform="translate(148.931953 611.778456)scale(0.15 -0.15)">
       <use xlink:href="#DejaVuSans-30"/>
       <use x="63.623047" xlink:href="#DejaVuSans-25"/>
      </g>
     </g>
    </g>
    <g id="xtick_2">
     <g id="text_2">
      <!-- 10% -->
      <defs>
       <path d="M 12.40625 8.296875 
L 28.515625 8.296875 
L 28.515625 63.921875 
L 10.984375 60.40625 
L 10.984375 69.390625 
L 28.421875 72.90625 
L 38.28125 72.90625 
L 38.28125 8.296875 
L 54.390625 8.296875 
L 54.390625 0 
L 12.40625 0 
z
" id="DejaVuSans-31"/>
      </defs>
      <g transform="translate(243.874678 611.778456)scale(0.15 -0.15)">
       <use xlink:href="#DejaVuSans-31"/>
       <use x="63.623047" xlink:href="#DejaVuSans-30"/>
       <use x="127.246094" xlink:href="#DejaVuSans-25"/>
      </g>
     </g>
    </g>
    <g id="xtick_3">
     <g id="text_3">
      <!-- 20% -->
      <defs>
       <path d="M 19.1875 8.296875 
L 53.609375 8.296875 
L 53.609375 0 
L 7.328125 0 
L 7.328125 8.296875 
Q 12.9375 14.109375 22.625 23.890625 
Q 32.328125 33.6875 34.8125 36.53125 
Q 39.546875 41.84375 41.421875 45.53125 
Q 43.3125 49.21875 43.3125 52.78125 
Q 43.3125 58.59375 39.234375 62.25 
Q 35.15625 65.921875 28.609375 65.921875 
Q 23.96875 65.921875 18.8125 64.3125 
Q 13.671875 62.703125 7.8125 59.421875 
L 7.8125 69.390625 
Q 13.765625 71.78125 18.9375 73 
Q 24.125 74.21875 28.421875 74.21875 
Q 39.75 74.21875 46.484375 68.546875 
Q 53.21875 62.890625 53.21875 53.421875 
Q 53.21875 48.921875 51.53125 44.890625 
Q 49.859375 40.875 45.40625 35.40625 
Q 44.1875 33.984375 37.640625 27.21875 
Q 31.109375 20.453125 19.1875 8.296875 
z
" id="DejaVuSans-32"/>
      </defs>
      <g transform="translate(343.589278 611.778456)scale(0.15 -0.15)">
       <use xlink:href="#DejaVuSans-32"/>
       <use x="63.623047" xlink:href="#DejaVuSans-30"/>
       <use x="127.246094" xlink:href="#DejaVuSans-25"/>
      </g>
     </g>
    </g>
    <g id="xtick_4">
     <g id="text_4">
      <!-- 30% -->
      <defs>
       <path d="M 40.578125 39.3125 
Q 47.65625 37.796875 51.625 33 
Q 55.609375 28.21875 55.609375 21.1875 
Q 55.609375 10.40625 48.1875 4.484375 
Q 40.765625 -1.421875 27.09375 -1.421875 
Q 22.515625 -1.421875 17.65625 -0.515625 
Q 12.796875 0.390625 7.625 2.203125 
L 7.625 11.71875 
Q 11.71875 9.328125 16.59375 8.109375 
Q 21.484375 6.890625 26.8125 6.890625 
Q 36.078125 6.890625 40.9375 10.546875 
Q 45.796875 14.203125 45.796875 21.1875 
Q 45.796875 27.640625 41.28125 31.265625 
Q 36.765625 34.90625 28.71875 34.90625 
L 20.21875 34.90625 
L 20.21875 43.015625 
L 29.109375 43.015625 
Q 36.375 43.015625 40.234375 45.921875 
Q 44.09375 48.828125 44.09375 54.296875 
Q 44.09375 59.90625 40.109375 62.90625 
Q 36.140625 65.921875 28.71875 65.921875 
Q 24.65625 65.921875 20.015625 65.03125 
Q 15.375 64.15625 9.8125 62.3125 
L 9.8125 71.09375 
Q 15.4375 72.65625 20.34375 73.4375 
Q 25.25 74.21875 29.59375 74.21875 
Q 40.828125 74.21875 47.359375 69.109375 
Q 53.90625 64.015625 53.90625 55.328125 
Q 53.90625 49.265625 50.4375 45.09375 
Q 46.96875 40.921875 40.578125 39.3125 
z
" id="DejaVuSans-33"/>
      </defs>
      <g transform="translate(443.303878 611.778456)scale(0.15 -0.15)">
       <use xlink:href="#DejaVuSans-33"/>
       <use x="63.623047" xlink:href="#DejaVuSans-30"/>
       <use x="127.246094" xlink:href="#DejaVuSans-25"/>
      </g>
     </g>
    </g>
    <g id="xtick_5">
     <g id="text_5">
      <!-- 40% -->
      <defs>
       <path d="M 37.796875 64.3125 
L 12.890625 25.390625 
L 37.796875 25.390625 
z
M 35.203125 72.90625 
L 47.609375 72.90625 
L 47.609375 25.390625 
L 58.015625 25.390625 
L 58.015625 17.1875 
L 47.609375 17.1875 
L 47.609375 0 
L 37.796875 0 
L 37.796875 17.1875 
L 4.890625 17.1875 
L 4.890625 26.703125 
z
" id="DejaVuSans-34"/>
      </defs>
      <g transform="translate(543.018478 611.778456)scale(0.15 -0.15)">
       <use xlink:href="#DejaVuSans-34"/>
       <use x="63.623047" xlink:href="#DejaVuSans-30"/>
       <use x="127.246094" xlink:href="#DejaVuSans-25"/>
      </g>
     </g>
    </g>
    <g id="xtick_6">
     <g id="text_6">
      <!-- 50% -->
      <defs>
       <path d="M 10.796875 72.90625 
L 49.515625 72.90625 
L 49.515625 64.59375 
L 19.828125 64.59375 
L 19.828125 46.734375 
Q 21.96875 47.46875 24.109375 47.828125 
Q 26.265625 48.1875 28.421875 48.1875 
Q 40.625 48.1875 47.75 41.5 
Q 54.890625 34.8125 54.890625 23.390625 
Q 54.890625 11.625 47.5625 5.09375 
Q 40.234375 -1.421875 26.90625 -1.421875 
Q 22.3125 -1.421875 17.546875 -0.640625 
Q 12.796875 0.140625 7.71875 1.703125 
L 7.71875 11.625 
Q 12.109375 9.234375 16.796875 8.0625 
Q 21.484375 6.890625 26.703125 6.890625 
Q 35.15625 6.890625 40.078125 11.328125 
Q 45.015625 15.765625 45.015625 23.390625 
Q 45.015625 31 40.078125 35.4375 
Q 35.15625 39.890625 26.703125 39.890625 
Q 22.75 39.890625 18.8125 39.015625 
Q 14.890625 38.140625 10.796875 36.28125 
z
" id="DejaVuSans-35"/>
      </defs>
      <g transform="translate(642.733078 611.778456)scale(0.15 -0.15)">
       <use xlink:href="#DejaVuSans-35"/>
       <use x="63.623047" xlink:href="#DejaVuSans-30"/>
       <use x="127.246094" xlink:href="#DejaVuSans-25"/>
      </g>
     </g>
    </g>
    <g id="xtick_7">
     <g id="text_7">
      <!-- 60% -->
      <defs>
       <path d="M 33.015625 40.375 
Q 26.375 40.375 22.484375 35.828125 
Q 18.609375 31.296875 18.609375 23.390625 
Q 18.609375 15.53125 22.484375 10.953125 
Q 26.375 6.390625 33.015625 6.390625 
Q 39.65625 6.390625 43.53125 10.953125 
Q 47.40625 15.53125 47.40625 23.390625 
Q 47.40625 31.296875 43.53125 35.828125 
Q 39.65625 40.375 33.015625 40.375 
z
M 52.59375 71.296875 
L 52.59375 62.3125 
Q 48.875 64.0625 45.09375 64.984375 
Q 41.3125 65.921875 37.59375 65.921875 
Q 27.828125 65.921875 22.671875 59.328125 
Q 17.53125 52.734375 16.796875 39.40625 
Q 19.671875 43.65625 24.015625 45.921875 
Q 28.375 48.1875 33.59375 48.1875 
Q 44.578125 48.1875 50.953125 41.515625 
Q 57.328125 34.859375 57.328125 23.390625 
Q 57.328125 12.15625 50.6875 5.359375 
Q 44.046875 -1.421875 33.015625 -1.421875 
Q 20.359375 -1.421875 13.671875 8.265625 
Q 6.984375 17.96875 6.984375 36.375 
Q 6.984375 53.65625 15.1875 63.9375 
Q 23.390625 74.21875 37.203125 74.21875 
Q 40.921875 74.21875 44.703125 73.484375 
Q 48.484375 72.75 52.59375 71.296875 
z
" id="DejaVuSans-36"/>
      </defs>
      <g transform="translate(742.447678 611.778456)scale(0.15 -0.15)">
       <use xlink:href="#DejaVuSans-36"/>
       <use x="63.623047" xlink:href="#DejaVuSans-30"/>
       <use x="127.246094" xlink:href="#DejaVuSans-25"/>
      </g>
     </g>
    </g>
    <g id="xtick_8">
     <g id="text_8">
      <!-- 70% -->
      <defs>
       <path d="M 8.203125 72.90625 
L 55.078125 72.90625 
L 55.078125 68.703125 
L 28.609375 0 
L 18.3125 0 
L 43.21875 64.59375 
L 8.203125 64.59375 
z
" id="DejaVuSans-37"/>
      </defs>
      <g transform="translate(842.162278 611.778456)scale(0.15 -0.15)">
       <use xlink:href="#DejaVuSans-37"/>
       <use x="63.623047" xlink:href="#DejaVuSans-30"/>
       <use x="127.246094" xlink:href="#DejaVuSans-25"/>
      </g>
     </g>
    </g>
    <g id="xtick_9">
     <g id="text_9">
      <!-- 80% -->
      <defs>
       <path d="M 31.78125 34.625 
Q 24.75 34.625 20.71875 30.859375 
Q 16.703125 27.09375 16.703125 20.515625 
Q 16.703125 13.921875 20.71875 10.15625 
Q 24.75 6.390625 31.78125 6.390625 
Q 38.8125 6.390625 42.859375 10.171875 
Q 46.921875 13.96875 46.921875 20.515625 
Q 46.921875 27.09375 42.890625 30.859375 
Q 38.875 34.625 31.78125 34.625 
z
M 21.921875 38.8125 
Q 15.578125 40.375 12.03125 44.71875 
Q 8.5 49.078125 8.5 55.328125 
Q 8.5 64.0625 14.71875 69.140625 
Q 20.953125 74.21875 31.78125 74.21875 
Q 42.671875 74.21875 48.875 69.140625 
Q 55.078125 64.0625 55.078125 55.328125 
Q 55.078125 49.078125 51.53125 44.71875 
Q 48 40.375 41.703125 38.8125 
Q 48.828125 37.15625 52.796875 32.3125 
Q 56.78125 27.484375 56.78125 20.515625 
Q 56.78125 9.90625 50.3125 4.234375 
Q 43.84375 -1.421875 31.78125 -1.421875 
Q 19.734375 -1.421875 13.25 4.234375 
Q 6.78125 9.90625 6.78125 20.515625 
Q 6.78125 27.484375 10.78125 32.3125 
Q 14.796875 37.15625 21.921875 38.8125 
z
M 18.3125 54.390625 
Q 18.3125 48.734375 21.84375 45.5625 
Q 25.390625 42.390625 31.78125 42.390625 
Q 38.140625 42.390625 41.71875 45.5625 
Q 45.3125 48.734375 45.3125 54.390625 
Q 45.3125 60.0625 41.71875 63.234375 
Q 38.140625 66.40625 31.78125 66.40625 
Q 25.390625 66.40625 21.84375 63.234375 
Q 18.3125 60.0625 18.3125 54.390625 
z
" id="DejaVuSans-38"/>
      </defs>
      <g transform="translate(941.876878 611.778456)scale(0.15 -0.15)">
       <use xlink:href="#DejaVuSans-38"/>
       <use x="63.623047" xlink:href="#DejaVuSans-30"/>
       <use x="127.246094" xlink:href="#DejaVuSans-25"/>
      </g>
     </g>
    </g>
    <g id="xtick_10">
     <g id="text_10">
      <!-- 90% -->
      <defs>
       <path d="M 10.984375 1.515625 
L 10.984375 10.5 
Q 14.703125 8.734375 18.5 7.8125 
Q 22.3125 6.890625 25.984375 6.890625 
Q 35.75 6.890625 40.890625 13.453125 
Q 46.046875 20.015625 46.78125 33.40625 
Q 43.953125 29.203125 39.59375 26.953125 
Q 35.25 24.703125 29.984375 24.703125 
Q 19.046875 24.703125 12.671875 31.3125 
Q 6.296875 37.9375 6.296875 49.421875 
Q 6.296875 60.640625 12.9375 67.421875 
Q 19.578125 74.21875 30.609375 74.21875 
Q 43.265625 74.21875 49.921875 64.515625 
Q 56.59375 54.828125 56.59375 36.375 
Q 56.59375 19.140625 48.40625 8.859375 
Q 40.234375 -1.421875 26.421875 -1.421875 
Q 22.703125 -1.421875 18.890625 -0.6875 
Q 15.09375 0.046875 10.984375 1.515625 
z
M 30.609375 32.421875 
Q 37.25 32.421875 41.125 36.953125 
Q 45.015625 41.5 45.015625 49.421875 
Q 45.015625 57.28125 41.125 61.84375 
Q 37.25 66.40625 30.609375 66.40625 
Q 23.96875 66.40625 20.09375 61.84375 
Q 16.21875 57.28125 16.21875 49.421875 
Q 16.21875 41.5 20.09375 36.953125 
Q 23.96875 32.421875 30.609375 32.421875 
z
" id="DejaVuSans-39"/>
      </defs>
      <g transform="translate(1041.591478 611.778456)scale(0.15 -0.15)">
       <use xlink:href="#DejaVuSans-39"/>
       <use x="63.623047" xlink:href="#DejaVuSans-30"/>
       <use x="127.246094" xlink:href="#DejaVuSans-25"/>
      </g>
     </g>
    </g>
    <g id="xtick_11">
     <g id="text_11">
      <!-- 100% -->
      <g transform="translate(1136.534203 611.778456)scale(0.15 -0.15)">
       <use xlink:href="#DejaVuSans-31"/>
       <use x="63.623047" xlink:href="#DejaVuSans-30"/>
       <use x="127.246094" xlink:href="#DejaVuSans-30"/>
       <use x="190.869141" xlink:href="#DejaVuSans-25"/>
      </g>
     </g>
    </g>
   </g>
   <g id="matplotlib.axis_2">
    <g id="ytick_1">
     <g id="text_12">
      <!-- 0 -->
      <g transform="translate(144.28625 599.079628)scale(0.15 -0.15)">
       <use xlink:href="#DejaVuSans-30"/>
      </g>
     </g>
    </g>
    <g id="ytick_2">
     <g id="text_13">
      <!-- 5000 -->
      <g transform="translate(115.655 513.517228)scale(0.15 -0.15)">
       <use xlink:href="#DejaVuSans-35"/>
       <use x="63.623047" xlink:href="#DejaVuSans-30"/>
       <use x="127.246094" xlink:href="#DejaVuSans-30"/>
       <use x="190.869141" xlink:href="#DejaVuSans-30"/>
      </g>
     </g>
    </g>
    <g id="ytick_3">
     <g id="text_14">
      <!-- 10000 -->
      <g transform="translate(106.11125 427.954828)scale(0.15 -0.15)">
       <use xlink:href="#DejaVuSans-31"/>
       <use x="63.623047" xlink:href="#DejaVuSans-30"/>
       <use x="127.246094" xlink:href="#DejaVuSans-30"/>
       <use x="190.869141" xlink:href="#DejaVuSans-30"/>
       <use x="254.492188" xlink:href="#DejaVuSans-30"/>
      </g>
     </g>
    </g>
    <g id="ytick_4">
     <g id="text_15">
      <!-- 15000 -->
      <g transform="translate(106.11125 342.392428)scale(0.15 -0.15)">
       <use xlink:href="#DejaVuSans-31"/>
       <use x="63.623047" xlink:href="#DejaVuSans-35"/>
       <use x="127.246094" xlink:href="#DejaVuSans-30"/>
       <use x="190.869141" xlink:href="#DejaVuSans-30"/>
       <use x="254.492188" xlink:href="#DejaVuSans-30"/>
      </g>
     </g>
    </g>
    <g id="ytick_5">
     <g id="text_16">
      <!-- 20000 -->
      <g transform="translate(106.11125 256.830028)scale(0.15 -0.15)">
       <use xlink:href="#DejaVuSans-32"/>
       <use x="63.623047" xlink:href="#DejaVuSans-30"/>
       <use x="127.246094" xlink:href="#DejaVuSans-30"/>
       <use x="190.869141" xlink:href="#DejaVuSans-30"/>
       <use x="254.492188" xlink:href="#DejaVuSans-30"/>
      </g>
     </g>
    </g>
    <g id="ytick_6">
     <g id="text_17">
      <!-- 25000 -->
      <g transform="translate(106.11125 171.267628)scale(0.15 -0.15)">
       <use xlink:href="#DejaVuSans-32"/>
       <use x="63.623047" xlink:href="#DejaVuSans-35"/>
       <use x="127.246094" xlink:href="#DejaVuSans-30"/>
       <use x="190.869141" xlink:href="#DejaVuSans-30"/>
       <use x="254.492188" xlink:href="#DejaVuSans-30"/>
      </g>
     </g>
    </g>
    <g id="ytick_7">
     <g id="text_18">
      <!-- 30000 -->
      <g transform="translate(106.11125 85.705228)scale(0.15 -0.15)">
       <use xlink:href="#DejaVuSans-33"/>
       <use x="63.623047" xlink:href="#DejaVuSans-30"/>
       <use x="127.246094" xlink:href="#DejaVuSans-30"/>
       <use x="190.869141" xlink:href="#DejaVuSans-30"/>
       <use x="254.492188" xlink:href="#DejaVuSans-30"/>
      </g>
     </g>
    </g>
   </g>
   <g id="patch_103">
    <path d="M 160.83 593.3808 
L 1157.976 593.3808 
" style="fill:none;stroke:#000000;stroke-linecap:square;stroke-linejoin:miter;stroke-width:0.8;"/>
   </g>
  </g>
 </g>
 <defs>
  <clipPath id="p3031561f1f">
   <rect height="513.3744" width="997.146" x="160.83" y="80.0064"/>
  </clipPath>
 </defs>
</svg>
